#Comment line ignore any data following # character 
#Hierarchical Translation and Rotation (.htr) file 
[Header]	
#Header keywords are followed by a single value 
FileType HTR		#Single word string
DataType HTRS		#Translation followed by rotation and scale data
FileVersion 1		#integer
NumSegments 84		#integer
NumFrames 2		#integer
DataFrameRate 30		#integer, data frame rate in this file
EulerRotationOrder ZYX
CalibrationUnits mm
RotationUnits Degrees
GlobalAxisofGravity Y
BoneLengthAxis Y
ScaleFactor 1.00
[SegmentNames&Hierarchy]
#CHILD	PARENT
MASTER GLOBAL
root MASTER
chest root
L_mid_tent01 root
R_mid_tent01 root
spine01 root
Bip01_Neck chest
L_humerus chest
R_humerus chest
weapon_bone chest
Bip01_Head Bip01_Neck
eye_left_bone Bip01_Head
eye_right_bone Bip01_Head
L_forearm L_humerus
L_front_hand L_forearm
L_weapon_bone L_forearm
L_front_hand01_01 L_front_hand
L_front_hand02_01 L_front_hand
L_front_hand03_01 L_front_hand
L_front_hand01_02 L_front_hand01_01
L_front_hand02_02 L_front_hand02_01
L_front_hand03_02 L_front_hand03_01
R_forearm R_humerus
R_front_hand R_forearm
R_weapon_bone R_forearm
R_front_hand01_01 R_front_hand
R_front_hand02_01 R_front_hand
R_front_hand03_01 R_front_hand
R_front_hand01_02 R_front_hand01_01
R_front_hand02_02 R_front_hand02_01
R_front_hand03_02 R_front_hand03_01
null_rope01_connect L_mid_tent01
Rope1_Seg01 null_rope01_connect
Rope1_Seg02 Rope1_Seg01
Rope1_Seg03 Rope1_Seg02
Rope1_Seg04 Rope1_Seg03
Rope1_Seg05 Rope1_Seg04
Rope1_Seg06 Rope1_Seg05
Rope1_Seg07 Rope1_Seg06
Rope1_Seg09 Rope1_Seg07
L_mid_hand01 Rope1_Seg09
L_mid_hand02 Rope1_Seg09
L_mid_hand03 Rope1_Seg09
null_rope02_connect R_mid_tent01
Rope2_Seg01 null_rope02_connect
Rope2_Seg02 Rope2_Seg01
Rope2_Seg03 Rope2_Seg02
Rope2_Seg04 Rope2_Seg03
Rope2_Seg05 Rope2_Seg04
Rope2_Seg06 Rope2_Seg05
Rope2_Seg07 Rope2_Seg06
Rope2_Seg09 Rope2_Seg07
R_mid_hand01 Rope2_Seg09
R_mid_hand02 Rope2_Seg09
R_mid_hand03 Rope2_Seg09
spine02 spine01
spine03 spine02
pelvis spine03
null_rope03_connect pelvis
null_rope04_connect pelvis
Rope3_Seg01 null_rope03_connect
Rope3_Seg02 Rope3_Seg01
Rope3_Seg03 Rope3_Seg02
Rope3_Seg04 Rope3_Seg03
Rope3_Seg05 Rope3_Seg04
Rope3_Seg06 Rope3_Seg05
Rope3_Seg07 Rope3_Seg06
Rope3_Seg08 Rope3_Seg07
Rope3_Seg09 Rope3_Seg08
R_rear_hand01 Rope3_Seg09
R_rear_hand02 Rope3_Seg09
R_rear_hand03 Rope3_Seg09
Rope4_Seg01 null_rope04_connect
Rope4_Seg02 Rope4_Seg01
Rope4_Seg03 Rope4_Seg02
Rope4_Seg04 Rope4_Seg03
Rope4_Seg05 Rope4_Seg04
Rope4_Seg06 Rope4_Seg05
Rope4_Seg07 Rope4_Seg06
Rope4_Seg08 Rope4_Seg07
Rope4_Seg09 Rope4_Seg08
L_rear_hand01 Rope4_Seg09
L_rear_hand02 Rope4_Seg09
L_rear_hand03 Rope4_Seg09
[BasePosition]
#SegmentName Tx, Ty, Tz, Rx, Ry, Rz, BoneLength
MASTER 0.000000 0.000000 0.000000 -90.000000 0.000000 0.000000 10.000000 
root 0.000000 0.000000 0.000000 0.000000 0.000000 0.000000 10.000000 
chest 0.000000 0.000000 0.000000 0.000000 0.000000 0.000000 10.000000 
L_mid_tent01 0.000000 0.000000 0.000000 0.000000 0.000000 0.000000 10.000000 
R_mid_tent01 0.000000 0.000000 0.000000 0.000000 0.000000 0.000000 10.000000 
spine01 0.000000 0.000000 0.000000 0.000000 0.000000 0.000000 10.000000 
Bip01_Neck 0.000000 0.000000 0.000000 0.000000 0.000000 0.000000 10.000000 
L_humerus 0.000000 0.000000 0.000000 0.000000 0.000000 0.000000 10.000000 
R_humerus 0.000000 0.000000 0.000000 0.000000 0.000000 0.000000 10.000000 
weapon_bone 0.000000 0.000000 0.000000 0.000000 0.000000 0.000000 10.000000 
Bip01_Head 0.000000 0.000000 0.000000 0.000000 0.000000 0.000000 10.000000 
eye_left_bone 0.000000 0.000000 0.000000 0.000000 0.000000 0.000000 10.000000 
eye_right_bone 0.000000 0.000000 0.000000 0.000000 0.000000 0.000000 10.000000 
L_forearm 0.000000 0.000000 0.000000 0.000000 0.000000 0.000000 10.000000 
L_front_hand 0.000000 0.000000 0.000000 0.000000 0.000000 0.000000 10.000000 
L_weapon_bone 0.000000 0.000000 0.000000 0.000000 0.000000 0.000000 10.000000 
L_front_hand01_01 0.000000 0.000000 0.000000 0.000000 0.000000 0.000000 10.000000 
L_front_hand02_01 0.000000 0.000000 0.000000 0.000000 0.000000 0.000000 10.000000 
L_front_hand03_01 0.000000 0.000000 0.000000 0.000000 0.000000 0.000000 10.000000 
L_front_hand01_02 0.000000 0.000000 0.000000 0.000000 0.000000 0.000000 10.000000 
L_front_hand02_02 0.000000 0.000000 0.000000 0.000000 0.000000 0.000000 10.000000 
L_front_hand03_02 0.000000 0.000000 0.000000 0.000000 0.000000 0.000000 10.000000 
R_forearm 0.000000 0.000000 0.000000 0.000000 0.000000 0.000000 10.000000 
R_front_hand 0.000000 0.000000 0.000000 0.000000 0.000000 0.000000 10.000000 
R_weapon_bone 0.000000 0.000000 0.000000 0.000000 0.000000 0.000000 10.000000 
R_front_hand01_01 0.000000 0.000000 0.000000 0.000000 0.000000 0.000000 10.000000 
R_front_hand02_01 0.000000 0.000000 0.000000 0.000000 0.000000 0.000000 10.000000 
R_front_hand03_01 0.000000 0.000000 0.000000 0.000000 0.000000 0.000000 10.000000 
R_front_hand01_02 0.000000 0.000000 0.000000 0.000000 0.000000 0.000000 10.000000 
R_front_hand02_02 0.000000 0.000000 0.000000 0.000000 0.000000 0.000000 10.000000 
R_front_hand03_02 0.000000 0.000000 0.000000 0.000000 0.000000 0.000000 10.000000 
null_rope01_connect 0.000000 0.000000 0.000000 0.000000 0.000000 0.000000 10.000000 
Rope1_Seg01 0.000000 0.000000 0.000000 0.000000 0.000000 0.000000 10.000000 
Rope1_Seg02 0.000000 0.000000 0.000000 0.000000 0.000000 0.000000 10.000000 
Rope1_Seg03 0.000000 0.000000 0.000000 0.000000 0.000000 0.000000 10.000000 
Rope1_Seg04 0.000000 0.000000 0.000000 0.000000 0.000000 0.000000 10.000000 
Rope1_Seg05 0.000000 0.000000 0.000000 0.000000 0.000000 0.000000 10.000000 
Rope1_Seg06 0.000000 0.000000 0.000000 0.000000 0.000000 0.000000 10.000000 
Rope1_Seg07 0.000000 0.000000 0.000000 0.000000 0.000000 0.000000 10.000000 
Rope1_Seg09 0.000000 0.000000 0.000000 0.000000 0.000000 0.000000 10.000000 
L_mid_hand01 0.000000 0.000000 0.000000 0.000000 0.000000 0.000000 10.000000 
L_mid_hand02 0.000000 0.000000 0.000000 0.000000 0.000000 0.000000 10.000000 
L_mid_hand03 0.000000 0.000000 0.000000 0.000000 0.000000 0.000000 10.000000 
null_rope02_connect 0.000000 0.000000 0.000000 0.000000 0.000000 0.000000 10.000000 
Rope2_Seg01 0.000000 0.000000 0.000000 0.000000 0.000000 0.000000 10.000000 
Rope2_Seg02 0.000000 0.000000 0.000000 0.000000 0.000000 0.000000 10.000000 
Rope2_Seg03 0.000000 0.000000 0.000000 0.000000 0.000000 0.000000 10.000000 
Rope2_Seg04 0.000000 0.000000 0.000000 0.000000 0.000000 0.000000 10.000000 
Rope2_Seg05 0.000000 0.000000 0.000000 0.000000 0.000000 0.000000 10.000000 
Rope2_Seg06 0.000000 0.000000 0.000000 0.000000 0.000000 0.000000 10.000000 
Rope2_Seg07 0.000000 0.000000 0.000000 0.000000 0.000000 0.000000 10.000000 
Rope2_Seg09 0.000000 0.000000 0.000000 0.000000 0.000000 0.000000 10.000000 
R_mid_hand01 0.000000 0.000000 0.000000 0.000000 0.000000 0.000000 10.000000 
R_mid_hand02 0.000000 0.000000 0.000000 0.000000 0.000000 0.000000 10.000000 
R_mid_hand03 0.000000 0.000000 0.000000 0.000000 0.000000 0.000000 10.000000 
spine02 0.000000 0.000000 0.000000 0.000000 0.000000 0.000000 10.000000 
spine03 0.000000 0.000000 0.000000 0.000000 0.000000 0.000000 10.000000 
pelvis 0.000000 0.000000 0.000000 0.000000 0.000000 0.000000 10.000000 
null_rope03_connect 0.000000 0.000000 0.000000 0.000000 0.000000 0.000000 10.000000 
null_rope04_connect 0.000000 0.000000 0.000000 0.000000 0.000000 0.000000 10.000000 
Rope3_Seg01 0.000000 0.000000 0.000000 0.000000 0.000000 0.000000 10.000000 
Rope3_Seg02 0.000000 0.000000 0.000000 0.000000 0.000000 0.000000 10.000000 
Rope3_Seg03 0.000000 0.000000 0.000000 0.000000 0.000000 0.000000 10.000000 
Rope3_Seg04 0.000000 0.000000 0.000000 0.000000 0.000000 0.000000 10.000000 
Rope3_Seg05 0.000000 0.000000 0.000000 0.000000 0.000000 0.000000 10.000000 
Rope3_Seg06 0.000000 0.000000 0.000000 0.000000 0.000000 0.000000 10.000000 
Rope3_Seg07 0.000000 0.000000 0.000000 0.000000 0.000000 0.000000 10.000000 
Rope3_Seg08 0.000000 0.000000 0.000000 0.000000 0.000000 0.000000 10.000000 
Rope3_Seg09 0.000000 0.000000 0.000000 0.000000 0.000000 0.000000 10.000000 
R_rear_hand01 0.000000 0.000000 0.000000 0.000000 0.000000 0.000000 10.000000 
R_rear_hand02 0.000000 0.000000 0.000000 0.000000 0.000000 0.000000 10.000000 
R_rear_hand03 0.000000 0.000000 0.000000 0.000000 0.000000 0.000000 10.000000 
Rope4_Seg01 0.000000 0.000000 0.000000 0.000000 0.000000 0.000000 10.000000 
Rope4_Seg02 0.000000 0.000000 0.000000 0.000000 0.000000 0.000000 10.000000 
Rope4_Seg03 0.000000 0.000000 0.000000 0.000000 0.000000 0.000000 10.000000 
Rope4_Seg04 0.000000 0.000000 0.000000 0.000000 0.000000 0.000000 10.000000 
Rope4_Seg05 0.000000 0.000000 0.000000 0.000000 0.000000 0.000000 10.000000 
Rope4_Seg06 0.000000 0.000000 0.000000 0.000000 0.000000 0.000000 10.000000 
Rope4_Seg07 0.000000 0.000000 0.000000 0.000000 0.000000 0.000000 10.000000 
Rope4_Seg08 0.000000 0.000000 0.000000 0.000000 0.000000 0.000000 10.000000 
Rope4_Seg09 0.000000 0.000000 0.000000 0.000000 0.000000 0.000000 10.000000 
L_rear_hand01 0.000000 0.000000 0.000000 0.000000 0.000000 0.000000 10.000000 
L_rear_hand02 0.000000 0.000000 0.000000 0.000000 0.000000 0.000000 10.000000 
L_rear_hand03 0.000000 0.000000 0.000000 0.000000 0.000000 0.000000 10.000000 
#Beginning of Data. Separated by tabs
#Fr	Tx	Ty	Tz	Rx	Ry	Rz	SF
[MASTER]
12 0.000481 -4468.812500 -417.981781 0.001660 0.001660 0.001660 4488.317383
13 0.000514 -4776.370117 -412.349976 0.001660 0.001660 0.001660 4794.136230
[root]
12 -37.656612 -52.958374 1502.594727 -93.742989 -33.709808 -93.134361 1503.999146
13 -37.332756 -53.578033 1502.555908 -96.623146 -37.577488 -90.686523 1503.974365
[chest]
12 -84.512650 -34.090519 0.000000 2.751704 -22.049242 159.196320 91.129311
13 -84.512650 -34.090519 0.000000 -5.898242 -27.380312 165.617004 91.129311
[L_mid_tent01]
12 27.299147 22.179106 -249.918716 2.638398 13.323567 79.629616 252.381699
13 27.299150 22.179106 -249.918716 3.138822 25.225021 80.408386 252.381699
[R_mid_tent01]
12 23.228794 24.509907 226.238495 163.164017 -20.361830 80.283455 228.744751
13 23.228794 24.509907 226.238495 160.635910 -34.057919 85.597313 228.744751
[spine01]
12 -0.361383 -0.195265 0.000000 0.002046 0.001150 31.310215 0.410763
13 -0.361383 -0.195265 0.000000 0.002042 0.001158 30.873873 0.410763
[Bip01_Neck]
12 165.484543 71.581718 0.000119 176.643677 -1.657967 43.431911 180.302734
13 165.484543 71.581718 0.000119 176.643677 -1.657967 43.431911 180.302734
[L_humerus]
12 -13.983130 -135.272980 -120.471481 162.663666 22.293890 -73.097794 181.680161
13 -13.983130 -135.272980 -120.471481 163.287994 29.774454 -87.634041 181.680161
[R_humerus]
12 -13.983309 -135.273102 125.287651 -175.501740 -8.354050 -89.448044 184.909012
13 -13.983309 -135.273102 125.287651 -173.517715 -9.518415 -94.674377 184.909012
[weapon_bone]
12 235.964890 -300.705902 0.000000 0.000000 -89.951546 -128.212341 382.234833
13 235.964890 -300.705902 0.000000 0.000000 -89.951546 -128.212341 382.234833
[Bip01_Head]
12 213.436890 185.736542 11.504360 32.181019 0.098417 -43.899761 283.170837
13 213.381348 185.891251 9.507440 32.556499 1.666165 -43.884834 283.156403
[eye_left_bone]
12 -24.626970 125.451866 -64.772606 0.000000 -90.000000 -99.840431 143.318359
13 -24.626970 125.451866 -64.772606 0.000000 -90.000000 -99.840431 143.318359
[eye_right_bone]
12 -24.626970 125.451866 64.327362 0.000000 -89.965736 80.156380 143.117676
13 -24.626970 125.451866 64.327362 0.000000 -89.980217 80.156387 143.117676
[L_forearm]
12 322.776093 0.000000 -0.000119 0.000066 -0.002346 -93.214645 322.776093
13 322.776093 0.000000 -0.000119 0.000001 0.002347 -89.930054 322.776093
[L_front_hand]
12 241.149185 -0.042021 -3.300071 -170.562973 -1.837201 -27.420998 241.171753
13 241.149185 -0.042021 -3.300071 -104.372856 -1.838155 -27.423193 241.171753
[L_weapon_bone]
12 156.183838 0.000000 0.000000 0.000014 0.000007 0.000001 156.183838
13 156.183838 0.000000 0.000000 0.000014 0.000007 0.000001 156.183838
[L_front_hand01_01]
12 86.095154 20.947098 -0.655860 -0.321223 -0.507430 70.185448 88.609184
13 86.095154 20.947098 -0.655860 -0.273295 -0.533469 64.985298 88.609184
[L_front_hand02_01]
12 86.935165 -11.437475 24.513514 146.959259 -57.332909 -52.658962 91.046425
13 86.935165 -11.437475 24.513514 140.772385 -54.262844 -45.183468 91.046425
[L_front_hand03_01]
12 86.637497 -14.123976 -20.424902 -146.987137 55.548500 -54.433449 90.126129
13 86.637497 -14.123976 -20.424902 -141.183044 52.494118 -47.265888 90.126129
[L_front_hand01_02]
12 71.020905 -0.000179 0.000030 0.001512 0.001796 -9.807722 71.020905
13 71.020905 -0.000179 0.000030 0.001448 0.001847 -13.805477 71.020905
[L_front_hand02_02]
12 71.020927 -0.000119 0.000060 0.001512 0.001796 -9.807722 71.020927
13 71.020927 -0.000119 0.000060 0.001448 0.001847 -13.805477 71.020927
[L_front_hand03_02]
12 71.020905 -0.000060 0.000060 0.001512 0.001796 -9.807722 71.020905
13 71.020905 -0.000060 0.000060 0.001448 0.001847 -13.805477 71.020905
[R_forearm]
12 322.776428 -0.000060 0.000030 0.213256 0.005607 -92.394951 322.776428
13 322.776428 -0.000060 0.000030 0.213330 -0.005727 -90.062737 322.776428
[R_front_hand]
12 238.847015 -0.006795 2.210259 -33.843800 -10.643802 -26.312429 238.857239
13 238.847015 -0.006795 2.210259 -102.136650 -10.642457 -26.313824 238.857239
[R_weapon_bone]
12 155.664093 0.002503 -0.000030 0.003487 0.001180 -90.988930 155.664078
13 155.664093 0.002503 -0.000030 0.003487 0.001180 -90.988930 155.664078
[R_front_hand01_01]
12 87.624611 14.231146 22.918642 -151.601074 -59.040489 58.224770 91.683487
13 87.624611 14.231146 22.918642 -145.608017 -56.744835 51.154251 91.683487
[R_front_hand02_01]
12 89.356956 14.367283 -19.491137 151.761566 57.399387 60.393982 92.579636
13 89.356956 14.367283 -19.491137 146.110306 55.126122 53.601757 92.579636
[R_front_hand03_01]
12 87.286232 -22.307278 -0.143439 0.146836 -0.431871 -73.769867 90.091743
13 87.286232 -22.307278 -0.143439 0.113810 -0.439857 -69.369041 90.091743
[R_front_hand01_02]
12 71.020905 0.000060 0.000119 0.001796 0.001512 9.806086 71.020905
13 71.020905 0.000060 0.000119 0.001847 0.001448 13.808818 71.020905
[R_front_hand02_02]
12 71.020844 -0.000030 -0.000119 0.001796 0.001512 9.806086 71.020836
13 71.020844 -0.000030 -0.000119 0.001847 0.001448 13.808818 71.020836
[R_front_hand03_02]
12 71.020905 0.000000 0.000030 0.001796 0.001512 9.806086 71.020905
13 71.020905 0.000000 0.000030 0.001847 0.001448 13.808818 71.020905
[null_rope01_connect]
12 328.732483 0.000000 -0.000238 -123.535271 -70.362213 167.789093 328.732483
13 328.732483 0.000000 -0.000238 -128.027374 -57.664188 176.221848 328.732483
[Rope1_Seg01]
12 -0.000015 -0.000023 0.000153 116.796097 12.101948 -178.891357 0.000155
13 -0.000016 -0.000022 0.000153 107.520355 -2.510240 -173.947983 0.000155
[Rope1_Seg02]
12 139.999863 -0.000179 0.000000 13.350195 -21.272829 -9.521065 139.999863
13 139.999863 -0.000179 0.000000 11.191444 -13.226852 -11.001066 139.999863
[Rope1_Seg03]
12 139.999924 0.000060 -0.000060 11.166969 -32.405064 -10.649493 139.999924
13 139.999924 0.000060 -0.000060 19.620087 -26.960241 -19.789623 139.999924
[Rope1_Seg04]
12 139.999924 -0.000060 -0.000119 -0.664434 -23.868448 0.425198 139.999924
13 139.999924 -0.000060 -0.000119 8.180080 -29.199701 -8.862576 139.999924
[Rope1_Seg05]
12 139.999832 0.000119 -0.000060 -4.749236 -19.076057 8.505382 139.999832
13 139.999832 0.000119 -0.000060 -4.223843 -27.023104 9.116503 139.999832
[Rope1_Seg06]
12 139.999954 0.000119 -0.000060 -4.946793 -11.705970 3.475224 139.999954
13 139.999954 0.000119 -0.000060 -5.547229 -16.206636 4.548748 139.999954
[Rope1_Seg07]
12 139.999985 0.000060 0.000000 -3.922973 -6.644953 1.111829 139.999985
13 139.999985 0.000060 0.000000 -3.990560 -7.722912 0.896083 139.999985
[Rope1_Seg09]
12 121.602913 0.000119 -0.000089 -89.793175 -1.359789 0.847147 121.602913
13 121.602913 0.000119 -0.000089 -89.793175 -1.359789 0.847147 121.602913
[L_mid_hand01]
12 103.859421 1.038730 8.195221 111.216125 -46.770245 -16.325298 104.187431
13 103.859421 1.038730 8.195221 112.987694 -50.601242 -18.681463 104.187431
[L_mid_hand02]
12 105.572853 -4.139662 -10.864139 -150.384232 34.904911 -44.592556 106.211075
13 105.572853 -4.139662 -10.864139 -153.018738 36.866020 -49.082432 106.211075
[L_mid_hand03]
12 104.641464 17.579376 -3.913581 -12.781249 13.855401 50.452690 106.179977
13 104.641464 17.579376 -3.913581 -11.755007 14.733719 54.618237 106.179977
[null_rope02_connect]
12 328.732849 0.000179 -0.000119 -88.975403 69.151787 45.235294 328.732849
13 328.732849 0.000179 -0.000119 -100.304756 57.207520 33.057686 328.732849
[Rope2_Seg01]
12 0.000095 0.000309 0.000000 -51.276672 44.790829 48.753151 0.000324
13 0.000095 0.000327 0.000000 -70.496574 46.509079 22.169231 0.000341
[Rope2_Seg02]
12 139.999741 -0.000060 -0.000119 -3.931749 -21.183969 23.141285 139.999756
13 139.999741 -0.000060 -0.000119 -12.047105 -29.952627 34.369396 139.999756
[Rope2_Seg03]
12 140.000107 0.000030 0.000000 5.568505 -18.477966 25.087070 140.000107
13 140.000107 0.000030 0.000000 4.194613 -23.539419 30.873816 140.000107
[Rope2_Seg04]
12 139.999802 0.000000 -0.000060 10.005828 -6.572838 12.397309 139.999802
13 139.999802 0.000000 -0.000060 -1.106709 -6.566282 2.046859 139.999802
[Rope2_Seg05]
12 139.999985 -0.000060 0.000119 -8.404610 -4.649947 -4.462179 139.999985
13 139.999985 -0.000060 0.000119 -18.392376 -6.143905 -15.267491 139.999985
[Rope2_Seg06]
12 139.999893 -0.000030 -0.000119 -25.104584 -5.742801 -21.751905 139.999893
13 139.999893 -0.000030 -0.000119 -13.444360 -1.408490 -15.031814 139.999893
[Rope2_Seg07]
12 139.999893 0.000060 -0.000060 -12.506271 1.800845 -16.924236 139.999893
13 139.999893 0.000060 -0.000060 -6.394574 0.306118 -8.851149 139.999893
[Rope2_Seg09]
12 121.338966 0.000089 -0.000060 33.793236 -1.359788 -0.847141 121.338966
13 121.338966 0.000089 -0.000060 33.793236 -1.359788 -0.847141 121.338966
[R_mid_hand01]
12 104.680779 11.144459 -10.335981 -36.922554 32.243565 38.107742 105.778534
13 104.680779 11.144459 -10.335981 -37.204075 31.906813 37.576267 105.778534
[R_mid_hand02]
12 104.070427 2.443552 8.231699 70.193451 -42.958271 14.324638 104.424065
13 104.070427 2.443552 8.231699 70.367462 -42.427391 14.067809 104.424065
[R_mid_hand03]
12 106.028137 -11.221827 -5.996406 -170.013962 12.325404 -47.779564 106.788818
13 106.028137 -11.221827 -5.996406 -169.893616 12.226658 -47.211018 106.788818
[spine02]
12 129.756927 0.001550 0.000119 0.528786 -4.025093 -15.334446 129.756927
13 129.756927 0.001550 0.000119 0.520889 -4.026139 -15.249292 129.756927
[spine03]
12 78.613754 0.081602 -4.899028 1.998062 3.782944 17.977171 78.766304
13 78.613731 0.081613 -4.899031 1.991514 3.784589 17.926874 78.766273
[pelvis]
12 169.435242 0.051022 0.000000 -0.070130 -0.177815 17.138117 169.435257
13 169.435242 0.051022 0.000000 -0.069967 -0.177879 17.033087 169.435257
[null_rope03_connect]
12 -1.257226 -2.466202 137.391083 -111.223190 -84.834869 -176.196991 137.418976
13 -1.257226 -2.466202 137.391083 -133.687561 -84.135094 -149.321777 137.418976
[null_rope04_connect]
12 -1.259640 -2.480268 -137.844437 -111.223190 -84.834869 -176.196991 137.872513
13 -1.259640 -2.480268 -137.844437 -133.687561 -84.135094 -149.321777 137.872513
[Rope3_Seg01]
12 -0.000019 0.000217 -0.000093 26.189651 -14.692995 33.069138 0.000236
13 -0.000019 0.000240 -0.000087 32.696632 -18.009062 40.682507 0.000256
[Rope3_Seg02]
12 139.999924 -0.000119 0.000060 -0.591812 6.937175 9.380634 139.999924
13 139.999924 -0.000119 0.000060 -7.951279 6.119961 0.608536 139.999924
[Rope3_Seg03]
12 139.999924 -0.000119 0.000119 2.091066 8.878511 15.345575 139.999924
13 139.999924 -0.000119 0.000119 -6.112105 2.873202 -2.356614 139.999924
[Rope3_Seg04]
12 139.999924 0.000119 0.000000 1.592142 13.955347 19.214380 139.999924
13 139.999924 0.000119 0.000000 -6.084106 10.990480 6.450521 139.999924
[Rope3_Seg05]
12 139.999924 -0.000238 0.000060 -1.691695 8.898435 0.296727 139.999924
13 139.999924 -0.000238 0.000060 2.248821 15.902803 22.185072 139.999924
[Rope3_Seg06]
12 139.999893 -0.000119 -0.000060 -0.002147 2.959541 0.427089 139.999893
13 139.999893 -0.000119 -0.000060 0.572126 5.240815 6.928719 139.999893
[Rope3_Seg07]
12 139.999771 0.000060 -0.000119 0.343087 1.740669 0.659789 139.999771
13 139.999771 0.000060 -0.000119 0.533052 2.786127 3.532661 139.999771
[Rope3_Seg08]
12 139.999985 -0.000060 0.000000 0.450123 1.014074 0.376591 139.999985
13 139.999985 -0.000060 0.000000 0.543215 1.580227 1.963007 139.999985
[Rope3_Seg09]
12 90.185997 -0.000179 -0.000060 89.793228 -1.359877 -0.847183 90.185997
13 90.185997 -0.000179 -0.000060 89.793228 -1.359877 -0.847183 90.185997
[R_rear_hand01]
12 103.366196 -6.073594 -10.757982 -164.755127 19.627697 -40.352161 104.101845
13 103.366196 -6.073594 -10.757982 -165.129333 19.906294 -41.459843 104.101845
[R_rear_hand02]
12 100.509819 12.039542 -7.992327 -30.792652 24.782450 38.141541 101.543350
13 100.509819 12.039542 -7.992327 -30.361923 25.330694 39.162529 101.543350
[R_rear_hand03]
12 101.539970 5.215704 5.435467 82.448349 -41.048256 8.840383 101.819031
13 101.539970 5.215704 5.435467 82.326164 -42.112499 9.027012 101.819031
[Rope4_Seg01]
12 0.000010 0.000038 -0.000114 -118.761444 -19.229567 144.048264 0.000121
13 0.000010 0.000038 -0.000114 -126.617790 -20.667593 149.796799 0.000121
[Rope4_Seg02]
12 139.999985 0.000060 0.000119 -5.780911 15.893973 2.499391 139.999985
13 139.999985 0.000060 0.000119 -4.289736 19.461845 5.238775 139.999985
[Rope4_Seg03]
12 139.999924 0.000000 -0.000238 -7.402725 36.998802 1.864745 139.999924
13 139.999924 0.000000 -0.000238 -7.651148 24.609138 0.029905 139.999924
[Rope4_Seg04]
12 139.999985 0.000000 0.000119 3.451252 16.753901 17.921284 139.999985
13 139.999985 0.000000 0.000119 7.190669 2.329870 18.315140 139.999985
[Rope4_Seg05]
12 139.999802 -0.000060 -0.000119 -18.753206 -22.612291 60.782673 139.999802
13 139.999802 -0.000060 -0.000119 2.080025 -11.013949 67.086044 139.999802
[Rope4_Seg06]
12 139.999924 0.000000 0.000060 -2.127122 -8.054133 19.201452 139.999924
13 139.999924 0.000000 0.000060 -3.032620 0.867107 22.849541 139.999924
[Rope4_Seg07]
12 139.999802 0.000000 0.000000 -0.352309 -2.866440 6.613772 139.999802
13 139.999802 0.000000 0.000000 -1.555522 -0.110150 6.718929 139.999802
[Rope4_Seg08]
12 139.999924 0.000000 0.000119 -1.542311 -0.727842 1.663557 139.999924
13 139.999924 0.000000 0.000119 -1.819204 -0.056470 1.323255 139.999924
[Rope4_Seg09]
12 90.185791 0.000060 0.000060 -135.617828 2.228885 0.850567 90.185791
13 90.185791 0.000060 0.000060 -135.617828 2.228885 0.850567 90.185791
[L_rear_hand01]
12 101.696655 -8.392275 -7.654577 -26.077669 -29.734318 131.595917 102.329041
13 101.696655 -8.392275 -7.654577 -23.837053 -31.497862 127.196869 102.329041
[L_rear_hand02]
12 102.726799 -1.568258 5.773216 80.880585 51.310986 168.994995 102.900848
13 102.726799 -1.568258 5.773216 79.940979 55.428291 167.825531 102.900848
[L_rear_hand03]
12 104.552910 9.721220 -10.420293 -168.606277 -22.023737 -128.845825 105.519653
13 104.552910 9.721220 -10.420293 -170.300186 -22.788523 -124.406990 105.519653
